<?xml version="1.0" encoding="UTF-8"?>
<svg width="512" height="512" viewBox="0 0 512 512" fill="none" xmlns="http://www.w3.org/2000/svg">
  <!-- 背景圆形 -->
  <circle cx="256" cy="256" r="250" fill="#FFEBE0" />
  
  <!-- 羽毛主杆 -->
  <path d="M170 420L290 120L320 130L200 430L170 420Z" fill="#FF8A3D" />
  
  <!-- 笔尖 -->
  <path d="M290 120L320 130L340 100L310 90L290 120Z" fill="#E05E00" />
  <path d="M310 90L340 100L350 80L320 70L310 90Z" fill="#B64800" />
  
  <!-- 羽毛装饰 - 右侧 -->
  <path d="M280 180C300 170 320 175 330 160" stroke="#FF5722" stroke-width="3" />
  <path d="M270 210C290 200 315 205 325 190" stroke="#FF5722" stroke-width="3" />
  <path d="M260 240C280 230 310 235 320 220" stroke="#FF5722" stroke-width="3" />
  <path d="M250 270C270 260 300 265 310 250" stroke="#FF5722" stroke-width="3" />
  <path d="M240 300C260 290 290 295 300 280" stroke="#FF5722" stroke-width="3" />
  <path d="M230 330C250 320 280 325 290 310" stroke="#FF5722" stroke-width="3" />
  <path d="M220 360C240 350 270 355 280 340" stroke="#FF5722" stroke-width="3" />
  
  <!-- 羽毛装饰 - 左侧 -->
  <path d="M290 180C270 170 250 175 240 160" stroke="#FF8A3D" stroke-width="3" />
  <path d="M280 210C260 200 235 205 225 190" stroke="#FF8A3D" stroke-width="3" />
  <path d="M270 240C250 230 230 235 220 220" stroke="#FF8A3D" stroke-width="3" />
  <path d="M260 270C240 260 220 265 210 250" stroke="#FF8A3D" stroke-width="3" />
  <path d="M250 300C230 290 210 295 200 280" stroke="#FF8A3D" stroke-width="3" />
  <path d="M240 330C220 320 200 325 190 310" stroke="#FF8A3D" stroke-width="3" />
  <path d="M230 360C210 350 190 355 180 340" stroke="#FF8A3D" stroke-width="3" />
  
  <!-- 羽毛顶部装饰 -->
  <path d="M320 70C310 50 330 40 320 20" stroke="#FF5722" stroke-width="3" stroke-linecap="round" />
  <path d="M330 75C340 55 320 45 335 25" stroke="#FF8A3D" stroke-width="3" stroke-linecap="round" />
  <path d="M310 80C290 60 310 40 300 25" stroke="#FF5722" stroke-width="3" stroke-linecap="round" />
  
  <!-- 字迹/墨迹效果 -->
  <path d="M150 400C190 380 250 410 290 370C330 330 350 300 370 260C390 220 400 190 380 160" stroke="#FF5722" stroke-width="8" stroke-linecap="round" stroke-linejoin="round" />
  <path d="M130 380C170 360 230 390 270 350C310 310 330 280 350 240C370 200 380 170 360 140" stroke="#FF8A3D" stroke-width="6" stroke-linecap="round" stroke-linejoin="round" />
  
  <!-- 点点滴滴的墨迹 -->
  <circle cx="370" cy="260" r="8" fill="#FF5722" />
  <circle cx="350" cy="240" r="6" fill="#FF8A3D" />
  <circle cx="330" cy="290" r="5" fill="#FF5722" />
  <circle cx="310" cy="330" r="7" fill="#FF8A3D" />
  <circle cx="280" cy="370" r="6" fill="#FF5722" />

  <!-- AI Mate 文字 -->
  <!-- 使用实际文本元素替代路径 -->
  <text x="180" y="460" fill="#FF5722" font-family="Arial, sans-serif" font-weight="bold" font-size="40">AI Mate</text>
</svg> 